REM DIRINDEX 1\2\3,1\2\4,1\2\5,1\2\6
REM DIRNAME folder01,folder02,folder03,folder04,folder05,folder06
TITLE ""
FILE "179 179.mp3" MP3
  TRACK 01 AUDIO
    TITLE "0:"
    INDEX 01 00:00:00
  TRACK 02 AUDIO
    TITLE "3:cjc157_6493"
    INDEX 01 00:00:13
  TRACK 03 AUDIO
    TITLE "0:"
    INDEX 01 00:01:24
  TRACK 04 AUDIO
    TITLE "4:cjc157_6494"
    INDEX 01 00:01:69
  TRACK 05 AUDIO
    TITLE "0:"
    INDEX 01 00:03:12
  TRACK 06 AUDIO
    TITLE "5:cjc157_6495"
    INDEX 01 00:03:59
  TRACK 07 AUDIO
    TITLE "0:"
    INDEX 01 00:07:56
  TRACK 08 AUDIO
    TITLE "5:cjc157_6496"
    INDEX 01 00:08:26
  TRACK 09 AUDIO
    TITLE "0:"
    INDEX 01 00:11:68
  TRACK 10 AUDIO
    TITLE "5:cjc157_6497"
    INDEX 01 00:12:38
  TRACK 11 AUDIO
    TITLE "0:"
    INDEX 01 00:15:44
  TRACK 12 AUDIO
    TITLE "3:cjc157_6498"
    INDEX 01 00:16:12
  TRACK 13 AUDIO
    TITLE "0:"
    INDEX 01 00:18:15
  TRACK 14 AUDIO
    TITLE "4:cjc157_6499"
    INDEX 01 00:18:64
  TRACK 15 AUDIO
    TITLE "0:"
    INDEX 01 00:21:13
  TRACK 16 AUDIO
    TITLE "5:cjc157_6500"
    INDEX 01 00:21:58
  TRACK 17 AUDIO
    TITLE "0:"
    INDEX 01 00:26:07
  TRACK 18 AUDIO
    TITLE "3:cjc157_6501"
    INDEX 01 00:26:54
  TRACK 19 AUDIO
    TITLE "0:"
    INDEX 01 00:28:21
  TRACK 20 AUDIO
    TITLE "4:cjc157_6502"
    INDEX 01 00:28:70
  TRACK 21 AUDIO
    TITLE "0:"
    INDEX 01 00:30:73
  TRACK 22 AUDIO
    TITLE "5:cjc157_6503"
    INDEX 01 00:31:45
  TRACK 23 AUDIO
    TITLE "0:"
    INDEX 01 00:34:43
  TRACK 24 AUDIO
    TITLE "3:cjc157_6504"
    INDEX 01 00:35:15
  TRACK 25 AUDIO
    TITLE "0:"
    INDEX 01 00:36:38
  TRACK 26 AUDIO
    TITLE "4:cjc157_6505"
    INDEX 01 00:37:10
  TRACK 27 AUDIO
    TITLE "0:"
    INDEX 01 00:38:33
  TRACK 28 AUDIO
    TITLE "5:cjc157_6506"
    INDEX 01 00:39:07
  TRACK 29 AUDIO
    TITLE "0:"
    INDEX 01 00:42:10
  TRACK 30 AUDIO
    TITLE "3:cjc157_6507"
    INDEX 01 00:42:55
  TRACK 31 AUDIO
    TITLE "0:"
    INDEX 01 00:44:42
  TRACK 32 AUDIO
    TITLE "4:cjc157_6508"
    INDEX 01 00:45:16
  TRACK 33 AUDIO
    TITLE "0:"
    INDEX 01 00:47:13
  TRACK 34 AUDIO
    TITLE "5:cjc157_6509"
    INDEX 01 00:47:60
  TRACK 35 AUDIO
    TITLE "0:"
    INDEX 01 00:50:48
  TRACK 36 AUDIO
    TITLE "5:cjc157_6510"
    INDEX 01 00:51:22
  TRACK 37 AUDIO
    TITLE "0:"
    INDEX 01 00:53:33
  TRACK 38 AUDIO
    TITLE "3:cjc157_6511"
    INDEX 01 00:54:09
  TRACK 39 AUDIO
    TITLE "0:"
    INDEX 01 00:55:73
  TRACK 40 AUDIO
    TITLE "4:cjc157_6512"
    INDEX 01 00:56:41
  TRACK 41 AUDIO
    TITLE "0:"
    INDEX 01 00:58:18
  TRACK 42 AUDIO
    TITLE "5:cjc157_6513"
    INDEX 01 00:58:66
  TRACK 43 AUDIO
    TITLE "0:"
    INDEX 01 01:01:60
  TRACK 44 AUDIO
    TITLE "5:cjc157_6514"
    INDEX 01 01:02:36
  TRACK 45 AUDIO
    TITLE "0:"
    INDEX 01 01:05:03
  TRACK 46 AUDIO
    TITLE "5:cjc157_6515"
    INDEX 01 01:05:46
  TRACK 47 AUDIO
    TITLE "0:"
    INDEX 01 01:09:10
  TRACK 48 AUDIO
    TITLE "3:cjc157_6516"
    INDEX 01 01:09:57
  TRACK 49 AUDIO
    TITLE "0:"
    INDEX 01 01:10:71
  TRACK 50 AUDIO
    TITLE "4:cjc157_6517"
    INDEX 01 01:11:43
  TRACK 51 AUDIO
    TITLE "0:"
    INDEX 01 01:13:08
  TRACK 52 AUDIO
    TITLE "5:cjc157_6518"
    INDEX 01 01:13:57
  TRACK 53 AUDIO
    TITLE "0:"
    INDEX 01 01:16:50
  TRACK 54 AUDIO
    TITLE "3:cjc157_6519"
    INDEX 01 01:17:20
  TRACK 55 AUDIO
    TITLE "0:"
    INDEX 01 01:18:68
  TRACK 56 AUDIO
    TITLE "4:cjc157_6520"
    INDEX 01 01:19:38
  TRACK 57 AUDIO
    TITLE "0:"
    INDEX 01 01:21:21
  TRACK 58 AUDIO
    TITLE "5:cjc157_6521"
    INDEX 01 01:21:65
  TRACK 59 AUDIO
    TITLE "0:"
    INDEX 01 01:25:04
  TRACK 60 AUDIO
    TITLE "3:cjc157_6522"
    INDEX 01 01:25:49
  TRACK 61 AUDIO
    TITLE "0:"
    INDEX 01 01:27:22
  TRACK 62 AUDIO
    TITLE "4:cjc157_6523"
    INDEX 01 01:27:67
  TRACK 63 AUDIO
    TITLE "0:"
    INDEX 01 01:31:45
  TRACK 64 AUDIO
    TITLE "5:cjc157_6524"
    INDEX 01 01:32:15
  TRACK 65 AUDIO
    TITLE "0:"
    INDEX 01 01:36:41
  TRACK 66 AUDIO
    TITLE "3:cjc157_6525"
    INDEX 01 01:37:17
  TRACK 67 AUDIO
    TITLE "0:"
    INDEX 01 01:39:10
  TRACK 68 AUDIO
    TITLE "4:cjc157_6526"
    INDEX 01 01:39:55
  TRACK 69 AUDIO
    TITLE "0:"
    INDEX 01 01:41:50
  TRACK 70 AUDIO
    TITLE "5:cjc157_6527"
    INDEX 01 01:42:20
  TRACK 71 AUDIO
    TITLE "0:"
    INDEX 01 01:46:33
